<?xml version="1.0" encoding="UTF-8" standalone="no"?>
<!DOCTYPE svg PUBLIC "-//W3C//DTD SVG 1.1//EN" "http://www.w3.org/Graphics/SVG/1.1/DTD/svg11.dtd">
<svg width="100%" height="100%" viewBox="0 0 288 150" version="1.1" xmlns="http://www.w3.org/2000/svg" xmlns:xlink="http://www.w3.org/1999/xlink" xml:space="preserve" xmlns:serif="http://www.serif.com/" style="fill-rule:evenodd;clip-rule:evenodd;stroke-linejoin:round;stroke-miterlimit:2;">
    <g id="V2-Flat" serif:id="V2 Flat" transform="matrix(2.5,0,0,2.5,-6.25,0)">
        <g transform="matrix(1,0,0,1,-2,0)">
            <path d="M19.358,10C20.665,10 22.042,10.3 23.49,10.9C24.937,11.501 26.12,12.242 27.039,13.125C27.533,13.584 27.86,14.017 28.018,14.423C28.177,14.829 28.257,15.262 28.257,15.721C28.257,16.639 28.01,17.38 27.515,17.945C27.021,18.51 26.35,18.793 25.502,18.793C24.937,18.793 24.461,18.696 24.072,18.501C23.684,18.307 23.295,18.034 22.907,17.68C22.271,17.08 21.653,16.665 21.053,16.436C20.453,16.206 19.747,16.091 18.934,16.091C17.875,16.091 16.913,16.497 16.048,17.31C15.182,18.122 14.75,19.252 14.75,20.7C14.75,21.759 15.032,22.598 15.597,23.216C16.162,23.834 17.045,24.443 18.246,25.043C19.446,25.643 20.726,26.173 22.086,26.632C23.445,27.091 24.584,27.656 25.502,28.327C26.915,29.387 28.001,30.711 28.76,32.3C29.519,33.889 29.899,35.602 29.899,37.438C29.899,39.027 29.625,40.563 29.078,42.046C28.53,43.529 27.718,44.836 26.641,45.966C25.564,47.096 24.24,47.996 22.669,48.667C21.097,49.338 19.305,49.674 17.292,49.674C15.456,49.674 13.805,49.303 12.34,48.561C10.874,47.82 9.682,46.99 8.764,46.072C8.376,45.683 8.085,45.26 7.89,44.8C7.696,44.341 7.599,43.918 7.599,43.529C7.599,42.611 7.864,41.887 8.394,41.357C8.923,40.828 9.647,40.563 10.565,40.563C10.918,40.563 11.289,40.642 11.678,40.801C12.066,40.96 12.454,41.234 12.843,41.622C13.549,42.329 14.291,42.832 15.068,43.132C15.844,43.432 16.798,43.582 17.928,43.582C19.799,43.582 21.247,43.008 22.271,41.861C23.295,40.713 23.807,39.239 23.807,37.438C23.807,36.308 23.578,35.363 23.119,34.604C22.66,33.845 21.83,33.165 20.629,32.565C19.605,32.035 18.422,31.532 17.08,31.055C15.739,30.578 14.432,29.969 13.161,29.228C11.925,28.486 10.865,27.383 9.983,25.917C9.1,24.452 8.658,22.712 8.658,20.7C8.658,19.181 8.923,17.769 9.453,16.462C9.983,15.156 10.724,14.026 11.678,13.072C12.631,12.119 13.761,11.368 15.068,10.821C16.374,10.274 17.804,10 19.358,10ZM102.041,10C103.917,10 105.694,10.307 107.372,10.92C109.05,11.534 110.502,12.409 111.729,13.545C112.956,14.682 113.93,16.062 114.652,17.686C115.374,19.309 115.735,21.132 115.735,23.152C115.735,25.173 115.374,26.986 114.652,28.592C113.93,30.198 112.956,31.569 111.729,32.705C110.502,33.842 109.05,34.717 107.372,35.33C105.694,35.944 103.917,36.251 102.041,36.251L97.44,36.251L97.44,46.534C97.44,47.509 97.161,48.275 96.601,48.835C96.042,49.394 95.275,49.674 94.301,49.674C93.435,49.674 92.704,49.394 92.109,48.835C91.514,48.275 91.216,47.509 91.216,46.534L91.216,13.085C91.216,12.147 91.514,11.398 92.109,10.839C92.704,10.28 93.435,10 94.301,10L102.041,10ZM97.44,30.026L102.041,30.026C103.051,30.026 104.016,29.873 104.937,29.566C105.857,29.259 106.651,28.808 107.318,28.213C107.986,27.618 108.518,26.896 108.915,26.048C109.312,25.2 109.51,24.235 109.51,23.152C109.51,22.07 109.312,21.105 108.915,20.257C108.518,19.409 107.986,18.687 107.318,18.092C106.651,17.496 105.857,17.036 104.937,16.711C104.016,16.387 103.051,16.224 102.041,16.224L97.44,16.224L97.44,30.026Z" style="fill:rgb(255,62,0);fill-rule:nonzero;"/>
        </g>
        <g transform="matrix(1,0,0,1,-2,0)">
            <path d="M60,3C74.902,3 87,15.098 87,30C87,44.902 74.902,57 60,57C45.098,57 33,44.902 33,30C33,15.098 45.098,3 60,3ZM60,38.672L71.359,17.578C72.144,16.12 73.964,15.574 75.422,16.359C76.88,17.144 77.426,18.964 76.641,20.422L62.641,46.422C62.118,47.394 61.104,48 60,48C58.896,48 57.882,47.394 57.359,46.422L43.359,20.422C42.574,18.964 43.12,17.144 44.578,16.359C46.036,15.574 47.856,16.12 48.641,17.578L60,38.672Z" style="fill:rgb(255,62,0);"/>
        </g>
    </g>
</svg>
