<?xml version="1.0" encoding="UTF-8" standalone="no"?>
<!DOCTYPE svg PUBLIC "-//W3C//DTD SVG 1.1//EN" "http://www.w3.org/Graphics/SVG/1.1/DTD/svg11.dtd">
<svg viewBox="0 0 120 60" xmlns="http://www.w3.org/2000/svg" fill-rule="evenodd" clip-rule="evenodd">
    <path d="M11.387 35.522c.617.572.923 1.272.923 2.098v2.498c0 1.345.585 2.485 1.72 3.437 1.208 1.013 2.672 1.51 4.384 1.51 1.711 0 3.175-.497 4.389-1.515 1.149-.951 1.744-2.089 1.744-3.432v-2.526c0-.9-.267-1.668-.83-2.31-.903-1.065-2.532-1.861-4.849-2.479l-1.379-.357-.627-.164-.673-.169a25.884 25.884 0 01-1.401-.399c-1.109-.335-2.083-.72-2.922-1.151-2.294-1.171-3.89-2.795-4.812-4.851-.583-1.304-.872-2.618-.872-3.942v-1.888c0-3.016 1.208-5.607 3.648-7.761 2.37-2.09 5.229-3.143 8.584-3.143 3.352 0 6.22 1.052 8.612 3.143 2.441 2.154 3.648 4.745 3.648 7.761v.861a.819.819 0 01-.004.085c-.059.708-.357 1.324-.911 1.838-.579.577-1.298.875-2.163.875-.842 0-1.553-.294-2.135-.876-.554-.513-.852-1.129-.911-1.837a1.228 1.228 0 01-.003-.085v-.861c0-1.345-.586-2.485-1.715-3.432-1.228-1.016-2.703-1.515-4.418-1.515-1.712 0-3.176.497-4.384 1.51-1.135.952-1.72 2.092-1.72 3.437v1.888c0 .512.128 1.037.373 1.579.393.873 1.178 1.548 2.307 2.074.524.242 1.156.474 1.879.694l1.056.301 1.071.27.739.163.768.205c3.77 1.013 6.474 2.604 8.151 4.708 1.345 1.683 2.02 3.625 2.02 5.828v2.526c0 3.016-1.207 5.607-3.652 7.764-2.388 2.088-5.256 3.14-8.608 3.14-3.355 0-6.214-1.053-8.584-3.143-2.44-2.154-3.648-4.745-3.648-7.761V37.62c0-.826.306-1.526.923-2.098.581-.576 1.289-.867 2.127-.867.861 0 1.577.294 2.155.867zm79.77 14.022c-.617-.572-.922-1.272-.922-2.098V12.609c0-.82.303-1.531.923-2.125.579-.555 1.286-.839 2.126-.839h9.298c3.578 0 6.632 1.216 9.164 3.642 2.549 2.443 3.82 5.392 3.82 8.843v8.911c0 3.211-1.124 6.008-3.379 8.391-2.228 2.355-4.973 3.699-8.236 4.029a3.223 3.223 0 01-.616.066h-6.973v3.919c0 .826-.305 1.526-.923 2.098-.577.572-1.294.867-2.155.867-.838 0-1.546-.291-2.127-.867zm5.205-11.974h6.22c1.889 0 3.509-.636 4.854-1.909 1.333-1.277 2.003-2.816 2.003-4.62V22.13c0-1.803-.67-3.342-2.003-4.619-1.348-1.293-2.967-1.937-4.854-1.937h-6.22V37.57z" fill="#ff3e00" fill-rule="nonzero"/>
    <path d="M60 3c14.902 0 27 12.098 27 27S74.902 57 60 57 33 44.902 33 30 45.098 3 60 3zm0 35.883L70.467 21.51a3.1 3.1 0 015.311 3.199L62.655 46.49a3.1 3.1 0 01-5.31 0L44.222 24.709a3.1 3.1 0 015.311-3.199L60 38.883z" fill="#ff3e00">
        <animateTransform attributeType="xml" attributeName="transform" type="rotate" from="0 60 30" to="360 60 30" dur="8s" additive="sum" repeatCount="indefinite" />    
    </path> 
</svg>